{
  "accessors": [
    {
      "bufferView": 2,
      "componentType": 5126,
      "count": 14318,
      "max": [
        1.7372957468032837,
        1.4494181871414185,
        0.4880751073360443
      ],
      "min": [
        -5.174731254577637,
        -1.0413652658462524,
        -1.6132746934890747
      ],
      "type": "VEC3"
    },
    {
      "bufferView": 2,
      "byteOffset": 171816,
      "componentType": 5126,
      "count": 14318,
      "max": [
        1.0,
        1.0,
        0.9999998807907104
      ],
      "min": [
        -1.0,
        -0.9999999403953552,
        -1.0
      ],
      "type": "VEC3"
    },
    {
      "bufferView": 3,
      "componentType": 5126,
      "count": 14318,
      "max": [
        0.9993946552276611,
        1.0,
        1.0,
        1.0
      ],
      "min": [
        -0.9999098777770996,
        -1.0,
        -0.9999951720237732,
        -1.0
      ],
      "type": "VEC4"
    },
    {
      "bufferView": 1,
      "componentType": 5126,
      "count": 14318,
      "max": [
        0.9952205419540405,
        0.9941784739494324
      ],
      "min": [
        0.000267092022113502,
        0.00026705555501393974
      ],
      "type": "VEC2"
    },
    {
      "bufferView": 0,
      "componentType": 5125,
      "count": 81768,
      "type": "SCALAR"
    },
    {
      "bufferView": 2,
      "byteOffset": 343632,
      "componentType": 5126,
      "count": 32890,
      "max": [
        345.078369140625,
        183.4638671875,
        103.87869262695313
      ],
      "min": [
        -82.5451431274414,
        -692.7722778320313,
        -771.3779296875
      ],
      "type": "VEC3"
    },
    {
      "bufferView": 2,
      "byteOffset": 738312,
      "componentType": 5126,
      "count": 32890,
      "max": [
        0.9999898076057434,
        0.9999997615814209,
        0.9999969005584717
      ],
      "min": [
        -0.9999778866767883,
        -0.999998927116394,
        -0.9999992251396179
      ],
      "type": "VEC3"
    },
    {
      "bufferView": 3,
      "byteOffset": 229088,
      "componentType": 5126,
      "count": 32890,
      "max": [
        0.9999874234199524,
        0.9999998807907104,
        0.9999935626983643,
        1.0
      ],
      "min": [
        -0.9999799728393555,
        -0.9999989867210388,
        -0.9999934434890747,
        1.0
      ],
      "type": "VEC4"
    },
    {
      "bufferView": 1,
      "byteOffset": 114544,
      "componentType": 5126,
      "count": 32890,
      "max": [
        0.9069942235946655,
        0.9995066523551941
      ],
      "min": [
        0.0004933865275233984,
        0.0004933801246806979
      ],
      "type": "VEC2"
    },
    {
      "bufferView": 0,
      "byteOffset": 327072,
      "componentType": 5125,
      "count": 171360,
      "type": "SCALAR"
    }
  ],
  "asset": {
    "extras": {
      "author": "LeanAzuos (https://sketchfab.com/LeanAzuos)",
      "license": "CC-BY-4.0 (http://creativecommons.org/licenses/by/4.0/)",
      "source": "https://sketchfab.com/3d-models/sofa-armchair-couch-small-vintag-a58464cea7df4127af53c7db808d3f52",
      "title": "Sofa Armchair Couch small Vintag"
    },
    "generator": "Sketchfab-16.16.0",
    "version": "2.0"
  },
  "bufferViews": [
    {
      "buffer": 0,
      "byteLength": 1012512,
      "name": "floatBufferViews",
      "target": 34963
    },
    {
      "buffer": 0,
      "byteLength": 377664,
      "byteOffset": 1012512,
      "byteStride": 8,
      "name": "floatBufferViews",
      "target": 34962
    },
    {
      "buffer": 0,
      "byteLength": 1132992,
      "byteOffset": 1390176,
      "byteStride": 12,
      "name": "floatBufferViews",
      "target": 34962
    },
    {
      "buffer": 0,
      "byteLength": 755328,
      "byteOffset": 2523168,
      "byteStride": 16,
      "name": "floatBufferViews",
      "target": 34962
    }
  ],
  "buffers": [
    {
      "byteLength": 3278496,
      "uri": "scene.bin"
    }
  ],
  "images": [
    {
      "uri": "textures/material_baseColor.png"
    },
    {
      "uri": "textures/material_metallicRoughness.png"
    },
    {
      "uri": "textures/material_normal.png"
    },
    {
      "uri": "textures/S-3-A_baseColor.png"
    },
    {
      "uri": "textures/S-3-A_metallicRoughness.png"
    },
    {
      "uri": "textures/S-3-A_normal.png"
    }
  ],
  "materials": [
    {
      "doubleSided": true,
      "name": "material",
      "normalTexture": {
        "index": 2
      },
      "occlusionTexture": {
        "index": 1
      },
      "pbrMetallicRoughness": {
        "baseColorTexture": {
          "index": 0
        },
        "metallicRoughnessTexture": {
          "index": 1
        },
        "roughnessFactor": 0.8274310931233314
      }
    },
    {
      "doubleSided": true,
      "name": "S-3-A",
      "normalTexture": {
        "index": 5,
        "scale": 0.9615267398910168
      },
      "occlusionTexture": {
        "index": 4
      },
      "pbrMetallicRoughness": {
        "baseColorTexture": {
          "index": 3
        },
        "metallicRoughnessTexture": {
          "index": 4
        },
        "roughnessFactor": 0.6689544196706123
      }
    }
  ],
  "meshes": [
    {
      "name": "S-3_S-3_0",
      "primitives": [
        {
          "attributes": {
            "NORMAL": 1,
            "POSITION": 0,
            "TANGENT": 2,
            "TEXCOORD_0": 3
          },
          "indices": 4,
          "material": 0,
          "mode": 4
        }
      ]
    },
    {
      "name": "S-3-A_S-3-A_0",
      "primitives": [
        {
          "attributes": {
            "NORMAL": 6,
            "POSITION": 5,
            "TANGENT": 7,
            "TEXCOORD_0": 8
          },
          "indices": 9,
          "material": 1,
          "mode": 4
        }
      ]
    }
  ],
  "nodes": [
    {
      "children": [
        1
      ],
      "matrix": [
        1.0,
        0.0,
        0.0,
        0.0,
        0.0,
        2.220446049250313e-16,
        -1.0,
        0.0,
        0.0,
        1.0,
        2.220446049250313e-16,
        0.0,
        0.0,
        0.0,
        0.0,
        1.0
      ],
      "name": "Sketchfab_model"
    },
    {
      "children": [
        2
      ],
      "matrix": [
        0.009999999776482582,
        0.0,
        0.0,
        0.0,
        0.0,
        0.0,
        0.009999999776482582,
        0.0,
        0.0,
        -0.009999999776482582,
        0.0,
        0.0,
        0.0,
        0.0,
        0.0,
        1.0
      ],
      "name": "SOFA-3-LOWPOLY-FBX.fbx"
    },
    {
      "children": [
        3,
        5
      ],
      "name": "RootNode"
    },
    {
      "children": [
        4
      ],
      "matrix": [
        100.0,
        0.0,
        0.0,
        0.0,
        0.0,
        -1.629206793918314e-05,
        -99.99999999999868,
        0.0,
        0.0,
        99.99999999999868,
        -1.629206793918314e-05,
        0.0,
        1199.499267578125,
        90.74270629882813,
        -3.438661575317383,
        1.0
      ],
      "name": "S-3"
    },
    {
      "mesh": 0,
      "name": "S-3_S-3_0"
    },
    {
      "children": [
        6
      ],
      "matrix": [
        0.01112864037491816,
        0.674369675659219,
        -0.02918360321511373,
        0.0,
        -0.47765823593403073,
        -0.012755403923487164,
        -0.4768960239085321,
        0.0,
        -0.4769367582125469,
        0.02851015313356092,
        0.4769364822894515,
        0.0,
        743.425537109375,
        -109.95459747314453,
        51.8299560546875,
        1.0
      ],
      "name": "S-3-A"
    },
    {
      "mesh": 1,
      "name": "S-3-A_S-3-A_0"
    }
  ],
  "samplers": [
    {
      "magFilter": 9729,
      "minFilter": 9987,
      "wrapS": 10497,
      "wrapT": 10497
    }
  ],
  "scene": 0,
  "scenes": [
    {
      "name": "Sketchfab_Scene",
      "nodes": [
        0
      ]
    }
  ],
  "textures": [
    {
      "sampler": 0,
      "source": 0
    },
    {
      "sampler": 0,
      "source": 1
    },
    {
      "sampler": 0,
      "source": 2
    },
    {
      "sampler": 0,
      "source": 3
    },
    {
      "sampler": 0,
      "source": 4
    },
    {
      "sampler": 0,
      "source": 5
    }
  ]
}
