{
  "accessors": [
    {
      "bufferView": 2,
      "componentType": 5126,
      "count": 3470,
      "max": [
        2.2603609561920166,
        1.1613415479660034,
        0.4307549297809601
      ],
      "min": [
        -2.2603797912597656,
        -1.161108136177063,
        -0.4383281469345093
      ],
      "type": "VEC3"
    },
    {
      "bufferView": 2,
      "byteOffset": 41640,
      "componentType": 5126,
      "count": 3470,
      "max": [
        0.9999623894691467,
        0.9999923706054688,
        0.9999997615814209
      ],
      "min": [
        -0.9996925592422485,
        -0.9999912977218628,
        -1.0
      ],
      "type": "VEC3"
    },
    {
      "bufferView": 3,
      "componentType": 5126,
      "count": 3470,
      "max": [
        0.9984336495399475,
        0.9993590116500854,
        0.9999846816062927,
        1.0
      ],
      "min": [
        -0.9999910593032837,
        -1.0,
        -0.9999325275421143,
        -1.0
      ],
      "type": "VEC4"
    },
    {
      "bufferView": 1,
      "componentType": 5126,
      "count": 3470,
      "max": [
        1.0000001192092896,
        0.8238221406936646
      ],
      "min": [
        1.0587601906308919e-08,
        -3.3606308846856336e-08
      ],
      "type": "VEC2"
    },
    {
      "bufferView": 0,
      "componentType": 5125,
      "count": 19680,
      "type": "SCALAR"
    },
    {
      "bufferView": 2,
      "byteOffset": 83280,
      "componentType": 5126,
      "count": 28750,
      "max": [
        2.1499292850494385,
        1.0036814212799072,
        -0.6845055818557739
      ],
      "min": [
        -2.1499292850494385,
        -1.0036814212799072,
        -1.6439802646636963
      ],
      "type": "VEC3"
    },
    {
      "bufferView": 2,
      "byteOffset": 428280,
      "componentType": 5126,
      "count": 28750,
      "max": [
        1.0,
        1.0,
        1.0
      ],
      "min": [
        -1.0,
        -1.0,
        -1.0
      ],
      "type": "VEC3"
    },
    {
      "bufferView": 3,
      "byteOffset": 55520,
      "componentType": 5126,
      "count": 28750,
      "max": [
        0.999991238117218,
        0.9999681115150452,
        0.9999972581863403,
        1.0
      ],
      "min": [
        -1.0,
        -1.0,
        -1.0,
        1.0
      ],
      "type": "VEC4"
    },
    {
      "bufferView": 1,
      "byteOffset": 27760,
      "componentType": 5126,
      "count": 28750,
      "max": [
        0.9823513627052307,
        0.9999999403953552
      ],
      "min": [
        -2.1315148757139468e-08,
        -1.3390214270714296e-08
      ],
      "type": "VEC2"
    },
    {
      "bufferView": 0,
      "byteOffset": 78720,
      "componentType": 5125,
      "count": 149520,
      "type": "SCALAR"
    },
    {
      "bufferView": 2,
      "byteOffset": 773280,
      "componentType": 5126,
      "count": 10694,
      "max": [
        1.6895595788955688,
        1.4010796546936035,
        0.4258369207382202
      ],
      "min": [
        -3.360501289367676,
        -1.019178867340088,
        -1.5186702013015747
      ],
      "type": "VEC3"
    },
    {
      "bufferView": 2,
      "byteOffset": 901608,
      "componentType": 5126,
      "count": 10694,
      "max": [
        1.0,
        1.0,
        1.0
      ],
      "min": [
        -1.0,
        -1.0,
        -1.0
      ],
      "type": "VEC3"
    },
    {
      "bufferView": 3,
      "byteOffset": 515520,
      "componentType": 5126,
      "count": 10694,
      "max": [
        0.9999392032623291,
        1.0,
        1.0,
        1.0
      ],
      "min": [
        -0.9997203350067139,
        -0.9997642040252686,
        -0.9999946355819702,
        -1.0
      ],
      "type": "VEC4"
    },
    {
      "bufferView": 1,
      "byteOffset": 257760,
      "componentType": 5126,
      "count": 10694,
      "max": [
        0.9997760057449341,
        0.8636177182197571
      ],
      "min": [
        0.0002240291505586356,
        0.00022404294577427208
      ],
      "type": "VEC2"
    },
    {
      "bufferView": 0,
      "byteOffset": 676800,
      "componentType": 5125,
      "count": 61416,
      "type": "SCALAR"
    },
    {
      "bufferView": 2,
      "byteOffset": 1029936,
      "componentType": 5126,
      "count": 32872,
      "max": [
        2.365525484085083,
        1.1227751970291138,
        1.025940179824829
      ],
      "min": [
        -2.365525484085083,
        -1.1079140901565552,
        -1.7044177055358887
      ],
      "type": "VEC3"
    },
    {
      "bufferView": 2,
      "byteOffset": 1424400,
      "componentType": 5126,
      "count": 32872,
      "max": [
        0.9999982714653015,
        1.0,
        1.0
      ],
      "min": [
        -0.9999982714653015,
        -1.0,
        -1.0
      ],
      "type": "VEC3"
    },
    {
      "bufferView": 3,
      "byteOffset": 686624,
      "componentType": 5126,
      "count": 32872,
      "max": [
        0.9999902248382568,
        1.0,
        1.0,
        1.0
      ],
      "min": [
        -0.999991238117218,
        -1.0,
        -1.0,
        1.0
      ],
      "type": "VEC4"
    },
    {
      "bufferView": 1,
      "byteOffset": 343312,
      "componentType": 5126,
      "count": 32872,
      "max": [
        0.981171727180481,
        0.9994842410087585
      ],
      "min": [
        0.000515726744197309,
        0.000515669584274292
      ],
      "type": "VEC2"
    },
    {
      "bufferView": 0,
      "byteOffset": 922464,
      "componentType": 5125,
      "count": 171360,
      "type": "SCALAR"
    }
  ],
  "asset": {
    "extras": {
      "author": "LeanAzuos (https://sketchfab.com/LeanAzuos)",
      "license": "CC-BY-4.0 (http://creativecommons.org/licenses/by/4.0/)",
      "source": "https://sketchfab.com/3d-models/sofa-armchair-couch-small-vintag-2ef1a117ff8f4d9a88ccec4e3affd8d9",
      "title": "Sofa Armchair Couch small Vintag"
    },
    "generator": "Sketchfab-16.16.0",
    "version": "2.0"
  },
  "bufferViews": [
    {
      "buffer": 0,
      "byteLength": 1607904,
      "name": "floatBufferViews",
      "target": 34963
    },
    {
      "buffer": 0,
      "byteLength": 606288,
      "byteOffset": 1607904,
      "byteStride": 8,
      "name": "floatBufferViews",
      "target": 34962
    },
    {
      "buffer": 0,
      "byteLength": 1818864,
      "byteOffset": 2214192,
      "byteStride": 12,
      "name": "floatBufferViews",
      "target": 34962
    },
    {
      "buffer": 0,
      "byteLength": 1212576,
      "byteOffset": 4033056,
      "byteStride": 16,
      "name": "floatBufferViews",
      "target": 34962
    }
  ],
  "buffers": [
    {
      "byteLength": 5245632,
      "uri": "scene.bin"
    }
  ],
  "images": [
    {
      "uri": "textures/material_baseColor.png"
    },
    {
      "uri": "textures/material_metallicRoughness.png"
    },
    {
      "uri": "textures/material_normal.png"
    },
    {
      "uri": "textures/P-2-A_baseColor.png"
    },
    {
      "uri": "textures/P-2-A_metallicRoughness.png"
    },
    {
      "uri": "textures/P-2-A_normal.png"
    },
    {
      "uri": "textures/material_2_baseColor.png"
    },
    {
      "uri": "textures/material_2_metallicRoughness.png"
    },
    {
      "uri": "textures/material_2_normal.png"
    },
    {
      "uri": "textures/S-2-A_baseColor.png"
    },
    {
      "uri": "textures/S-2-A_metallicRoughness.png"
    },
    {
      "uri": "textures/S-2-A_normal.png"
    }
  ],
  "materials": [
    {
      "doubleSided": true,
      "name": "material",
      "normalTexture": {
        "index": 2
      },
      "occlusionTexture": {
        "index": 1
      },
      "pbrMetallicRoughness": {
        "baseColorTexture": {
          "index": 0
        },
        "metallicRoughnessTexture": {
          "index": 1
        },
        "roughnessFactor": 0.8152405797808145
      }
    },
    {
      "doubleSided": true,
      "name": "P-2-A",
      "normalTexture": {
        "index": 5
      },
      "occlusionTexture": {
        "index": 4
      },
      "pbrMetallicRoughness": {
        "baseColorTexture": {
          "index": 3
        },
        "metallicRoughnessTexture": {
          "index": 4
        }
      }
    },
    {
      "doubleSided": true,
      "name": "material_2",
      "normalTexture": {
        "index": 8
      },
      "occlusionTexture": {
        "index": 7
      },
      "pbrMetallicRoughness": {
        "baseColorTexture": {
          "index": 6
        },
        "metallicRoughnessTexture": {
          "index": 7
        },
        "roughnessFactor": 0.8335263497945898
      }
    },
    {
      "doubleSided": true,
      "name": "S-2-A",
      "normalTexture": {
        "index": 11,
        "scale": 0.5531445429167022
      },
      "occlusionTexture": {
        "index": 10
      },
      "pbrMetallicRoughness": {
        "baseColorTexture": {
          "index": 9
        },
        "metallicRoughnessTexture": {
          "index": 10
        }
      }
    }
  ],
  "meshes": [
    {
      "name": "P-2_P-2_0",
      "primitives": [
        {
          "attributes": {
            "NORMAL": 1,
            "POSITION": 0,
            "TANGENT": 2,
            "TEXCOORD_0": 3
          },
          "indices": 4,
          "material": 0,
          "mode": 4
        }
      ]
    },
    {
      "name": "P-2-A_P-2-A_0",
      "primitives": [
        {
          "attributes": {
            "NORMAL": 6,
            "POSITION": 5,
            "TANGENT": 7,
            "TEXCOORD_0": 8
          },
          "indices": 9,
          "material": 1,
          "mode": 4
        }
      ]
    },
    {
      "name": "S-2_S-2_0",
      "primitives": [
        {
          "attributes": {
            "NORMAL": 11,
            "POSITION": 10,
            "TANGENT": 12,
            "TEXCOORD_0": 13
          },
          "indices": 14,
          "material": 2,
          "mode": 4
        }
      ]
    },
    {
      "name": "S-2-A_S-2-A_0",
      "primitives": [
        {
          "attributes": {
            "NORMAL": 16,
            "POSITION": 15,
            "TANGENT": 17,
            "TEXCOORD_0": 18
          },
          "indices": 19,
          "material": 3,
          "mode": 4
        }
      ]
    }
  ],
  "nodes": [
    {
      "children": [
        1
      ],
      "matrix": [
        0.28005450963974,
        0.0,
        0.0,
        0.0,
        0.0,
        6.218459295042944e-17,
        -0.28005450963974,
        0.0,
        0.0,
        0.28005450963974,
        6.218459295042944e-17,
        0.0,
        0.0,
        0.0,
        0.0,
        1.0
      ],
      "name": "Sketchfab_model"
    },
    {
      "children": [
        2
      ],
      "matrix": [
        0.009999999776482582,
        0.0,
        0.0,
        0.0,
        0.0,
        0.0,
        0.009999999776482582,
        0.0,
        0.0,
        -0.009999999776482582,
        0.0,
        0.0,
        0.0,
        0.0,
        0.0,
        1.0
      ],
      "name": "SOFA-2-LOWPOLY-FBX.fbx"
    },
    {
      "children": [
        3,
        5,
        7,
        9
      ],
      "name": "RootNode"
    },
    {
      "children": [
        4
      ],
      "matrix": [
        99.17781829833984,
        0.0,
        0.0,
        0.0,
        0.0,
        -1.6158117537765135e-05,
        -99.17781829833854,
        0.0,
        0.0,
        99.17781829833854,
        -1.6158117537765135e-05,
        0.0,
        244.28024291992188,
        -33.722816467285156,
        293.3459167480469,
        1.0
      ],
      "name": "P-2"
    },
    {
      "mesh": 0,
      "name": "P-2_P-2_0"
    },
    {
      "children": [
        6
      ],
      "matrix": [
        100.0,
        0.0,
        0.0,
        0.0,
        0.0,
        -1.629206793918314e-05,
        -99.99999999999868,
        0.0,
        0.0,
        99.99999999999868,
        -1.629206793918314e-05,
        0.0,
        245.15672302246094,
        0.0,
        291.38092041015625,
        1.0
      ],
      "name": "P-2-A"
    },
    {
      "mesh": 1,
      "name": "P-2-A_P-2-A_0"
    },
    {
      "children": [
        8
      ],
      "matrix": [
        100.0,
        0.0,
        0.0,
        0.0,
        0.0,
        -1.629206793918314e-05,
        -99.99999999999868,
        0.0,
        0.0,
        99.99999999999868,
        -1.629206793918314e-05,
        0.0,
        330.0262756347656,
        90.74270629882813,
        0.0,
        1.0
      ],
      "name": "S-2"
    },
    {
      "mesh": 2,
      "name": "S-2_S-2_0"
    },
    {
      "children": [
        10
      ],
      "matrix": [
        100.0,
        0.0,
        0.0,
        0.0,
        0.0,
        -1.629206793918314e-05,
        -99.99999999999868,
        0.0,
        0.0,
        99.99999999999868,
        -1.629206793918314e-05,
        0.0,
        247.31556701660156,
        6.043744087219238,
        -6.957758903503418,
        1.0
      ],
      "name": "S-2-A"
    },
    {
      "mesh": 3,
      "name": "S-2-A_S-2-A_0"
    }
  ],
  "samplers": [
    {
      "magFilter": 9729,
      "minFilter": 9987,
      "wrapS": 10497,
      "wrapT": 10497
    }
  ],
  "scene": 0,
  "scenes": [
    {
      "name": "Sketchfab_Scene",
      "nodes": [
        0
      ]
    }
  ],
  "textures": [
    {
      "sampler": 0,
      "source": 0
    },
    {
      "sampler": 0,
      "source": 1
    },
    {
      "sampler": 0,
      "source": 2
    },
    {
      "sampler": 0,
      "source": 3
    },
    {
      "sampler": 0,
      "source": 4
    },
    {
      "sampler": 0,
      "source": 5
    },
    {
      "sampler": 0,
      "source": 6
    },
    {
      "sampler": 0,
      "source": 7
    },
    {
      "sampler": 0,
      "source": 8
    },
    {
      "sampler": 0,
      "source": 9
    },
    {
      "sampler": 0,
      "source": 10
    },
    {
      "sampler": 0,
      "source": 11
    }
  ]
}
