{
  "accessors": [
    {
      "bufferView": 2,
      "componentType": 5126,
      "count": 20692,
      "max": [
        0.1930689960718155,
        -0.014685300178825855,
        0.24735499918460846
      ],
      "min": [
        -0.19588500261306763,
        -0.15698599815368652,
        -0.04436109960079193
      ],
      "type": "VEC3"
    },
    {
      "bufferView": 2,
      "byteOffset": 248304,
      "componentType": 5126,
      "count": 20692,
      "max": [
        1.0,
        1.0,
        1.0
      ],
      "min": [
        -1.0,
        -0.9996137619018555,
        -1.0
      ],
      "type": "VEC3"
    },
    {
      "bufferView": 3,
      "componentType": 5126,
      "count": 20692,
      "max": [
        0.999998927116394,
        1.0,
        0.9992977976799011,
        1.0
      ],
      "min": [
        -0.9996138215065002,
        -0.9999973773956299,
        -1.0,
        1.0
      ],
      "type": "VEC4"
    },
    {
      "bufferView": 1,
      "componentType": 5126,
      "count": 20692,
      "max": [
        0.9961090087890625,
        0.8602250218391418
      ],
      "min": [
        0.0009769999887794256,
        0.0009769999887794256
      ],
      "type": "VEC2"
    },
    {
      "bufferView": 0,
      "componentType": 5125,
      "count": 109692,
      "type": "SCALAR"
    },
    {
      "bufferView": 2,
      "byteOffset": 496608,
      "componentType": 5126,
      "count": 65532,
      "max": [
        0.8108159899711609,
        0.15698599815368652,
        0.5778840184211731
      ],
      "min": [
        -0.8274890184402466,
        -0.15698599815368652,
        0.03462669998407364
      ],
      "type": "VEC3"
    },
    {
      "bufferView": 2,
      "byteOffset": 1282992,
      "componentType": 5126,
      "count": 65532,
      "max": [
        0.9999998211860657,
        1.0,
        0.9999110102653503
      ],
      "min": [
        -0.9999998807907104,
        -1.0,
        -0.9999998807907104
      ],
      "type": "VEC3"
    },
    {
      "bufferView": 3,
      "byteOffset": 331072,
      "componentType": 5126,
      "count": 65532,
      "max": [
        1.0,
        1.0,
        0.9999540448188782,
        1.0
      ],
      "min": [
        -1.0,
        -1.0,
        -0.9999930262565613,
        -1.0
      ],
      "type": "VEC4"
    },
    {
      "bufferView": 1,
      "byteOffset": 165536,
      "componentType": 5126,
      "count": 65532,
      "max": [
        0.9990230202674866,
        0.9582170248031616
      ],
      "min": [
        0.0009769999887794256,
        0.0009769999887794256
      ],
      "type": "VEC2"
    },
    {
      "bufferView": 0,
      "byteOffset": 438768,
      "componentType": 5125,
      "count": 356052,
      "type": "SCALAR"
    },
    {
      "bufferView": 2,
      "byteOffset": 2069376,
      "componentType": 5126,
      "count": 15256,
      "max": [
        0.8274890184402466,
        0.15698599815368652,
        0.5647950172424316
      ],
      "min": [
        0.34790098667144775,
        -0.13123400509357452,
        0.03462669998407364
      ],
      "type": "VEC3"
    },
    {
      "bufferView": 2,
      "byteOffset": 2252448,
      "componentType": 5126,
      "count": 15256,
      "max": [
        0.9999998807907104,
        1.0,
        0.999794065952301
      ],
      "min": [
        -0.999999463558197,
        -1.0,
        -0.9999048709869385
      ],
      "type": "VEC3"
    },
    {
      "bufferView": 3,
      "byteOffset": 1379584,
      "componentType": 5126,
      "count": 15256,
      "max": [
        1.0,
        1.0,
        0.9999876022338867,
        1.0
      ],
      "min": [
        -1.0,
        -1.0,
        -0.9977715015411377,
        -1.0
      ],
      "type": "VEC4"
    },
    {
      "bufferView": 1,
      "byteOffset": 689792,
      "componentType": 5126,
      "count": 15256,
      "max": [
        0.9985589981079102,
        0.9582290053367615
      ],
      "min": [
        0.0009769999887794256,
        0.0009769999887794256
      ],
      "type": "VEC2"
    },
    {
      "bufferView": 0,
      "byteOffset": 1862976,
      "componentType": 5125,
      "count": 77196,
      "type": "SCALAR"
    },
    {
      "bufferView": 2,
      "byteOffset": 2435520,
      "componentType": 5126,
      "count": 46482,
      "max": [
        0.39046600461006165,
        0.15698599815368652,
        -0.23905900120735168
      ],
      "min": [
        -0.39046600461006165,
        -0.15698599815368652,
        -0.604843020439148
      ],
      "type": "VEC3"
    },
    {
      "bufferView": 2,
      "byteOffset": 2993304,
      "componentType": 5126,
      "count": 46482,
      "max": [
        1.0,
        1.0,
        1.0
      ],
      "min": [
        -1.0,
        -1.0,
        -1.0
      ],
      "type": "VEC3"
    },
    {
      "bufferView": 3,
      "byteOffset": 1623680,
      "componentType": 5126,
      "count": 46482,
      "max": [
        0.9999986290931702,
        1.0,
        1.0,
        1.0
      ],
      "min": [
        -0.9998061060905457,
        -1.0,
        -1.0,
        -1.0
      ],
      "type": "VEC4"
    },
    {
      "bufferView": 1,
      "byteOffset": 811840,
      "componentType": 5126,
      "count": 46482,
      "max": [
        0.9990230202674866,
        0.9529929757118225
      ],
      "min": [
        0.0009769999887794256,
        0.0009769999887794256
      ],
      "type": "VEC2"
    },
    {
      "bufferView": 0,
      "byteOffset": 2171760,
      "componentType": 5125,
      "count": 258768,
      "type": "SCALAR"
    }
  ],
  "asset": {
    "extras": {
      "author": "Jakoza (https://sketchfab.com/Moe.T)",
      "license": "CC-BY-4.0 (http://creativecommons.org/licenses/by/4.0/)",
      "source": "https://sketchfab.com/3d-models/chesterfield-lounge-set-36ac2ea9644c4988ad780f3022fd4616",
      "title": "Chesterfield Lounge Set"
    },
    "generator": "Sketchfab-12.64.0",
    "version": "2.0"
  },
  "bufferViews": [
    {
      "buffer": 0,
      "byteLength": 3206832,
      "name": "floatBufferViews",
      "target": 34963
    },
    {
      "buffer": 0,
      "byteLength": 1183696,
      "byteOffset": 3206832,
      "byteStride": 8,
      "name": "floatBufferViews",
      "target": 34962
    },
    {
      "buffer": 0,
      "byteLength": 3551088,
      "byteOffset": 4390528,
      "byteStride": 12,
      "name": "floatBufferViews",
      "target": 34962
    },
    {
      "buffer": 0,
      "byteLength": 2367392,
      "byteOffset": 7941616,
      "byteStride": 16,
      "name": "floatBufferViews",
      "target": 34962
    }
  ],
  "buffers": [
    {
      "byteLength": 10309008,
      "uri": "scene.bin"
    }
  ],
  "images": [
    {
      "uri": "textures/CouchMat_baseColor.png"
    },
    {
      "uri": "textures/CouchMat_metallicRoughness.png"
    },
    {
      "uri": "textures/CouchMat_emissive.jpeg"
    },
    {
      "uri": "textures/CouchMat_normal.png"
    },
    {
      "uri": "textures/ChairMat_baseColor.jpeg"
    },
    {
      "uri": "textures/ChairMat_metallicRoughness.png"
    },
    {
      "uri": "textures/ChairMat_normal.png"
    }
  ],
  "materials": [
    {
      "alphaMode": "BLEND",
      "doubleSided": true,
      "emissiveFactor": [
        1.0,
        1.0,
        1.0
      ],
      "emissiveTexture": {
        "index": 2
      },
      "name": "CouchMat",
      "normalTexture": {
        "index": 3
      },
      "occlusionTexture": {
        "index": 1
      },
      "pbrMetallicRoughness": {
        "baseColorTexture": {
          "index": 0
        },
        "metallicRoughnessTexture": {
          "index": 1
        },
        "roughnessFactor": 0.75
      }
    },
    {
      "doubleSided": true,
      "name": "ChairMat",
      "normalTexture": {
        "index": 6
      },
      "occlusionTexture": {
        "index": 5
      },
      "pbrMetallicRoughness": {
        "baseColorTexture": {
          "index": 4
        },
        "metallicRoughnessTexture": {
          "index": 5
        },
        "roughnessFactor": 0.75
      }
    }
  ],
  "meshes": [
    {
      "name": "defaultMaterial",
      "primitives": [
        {
          "attributes": {
            "NORMAL": 1,
            "POSITION": 0,
            "TANGENT": 2,
            "TEXCOORD_0": 3
          },
          "indices": 4,
          "material": 0,
          "mode": 4
        }
      ]
    },
    {
      "name": "defaultMaterial",
      "primitives": [
        {
          "attributes": {
            "NORMAL": 6,
            "POSITION": 5,
            "TANGENT": 7,
            "TEXCOORD_0": 8
          },
          "indices": 9,
          "material": 1,
          "mode": 4
        }
      ]
    },
    {
      "name": "defaultMaterial",
      "primitives": [
        {
          "attributes": {
            "NORMAL": 11,
            "POSITION": 10,
            "TANGENT": 12,
            "TEXCOORD_0": 13
          },
          "indices": 14,
          "material": 1,
          "mode": 4
        }
      ]
    },
    {
      "name": "defaultMaterial",
      "primitives": [
        {
          "attributes": {
            "NORMAL": 16,
            "POSITION": 15,
            "TANGENT": 17,
            "TEXCOORD_0": 18
          },
          "indices": 19,
          "material": 0,
          "mode": 4
        }
      ]
    }
  ],
  "nodes": [
    {
      "children": [
        1
      ],
      "matrix": [
        1.0,
        0.0,
        0.0,
        0.0,
        0.0,
        2.220446049250313e-16,
        -1.0,
        0.0,
        0.0,
        1.0,
        2.220446049250313e-16,
        0.0,
        0.0,
        -1.243449791856059e-24,
        5.600000019256868e-09,
        1.0
      ],
      "name": "Sketchfab_model"
    },
    {
      "children": [
        2,
        4,
        7
      ],
      "matrix": [
        1.0,
        0.0,
        0.0,
        0.0,
        0.0,
        -4.371139006309477e-08,
        0.999999999999999,
        0.0,
        0.0,
        -0.999999999999999,
        -4.371139006309477e-08,
        0.0,
        0.0,
        0.0,
        0.0,
        1.0
      ],
      "name": "Collada visual scene group"
    },
    {
      "children": [
        3
      ],
      "name": "g"
    },
    {
      "mesh": 0,
      "name": "defaultMaterial"
    },
    {
      "children": [
        5,
        6
      ],
      "name": "g"
    },
    {
      "mesh": 1,
      "name": "defaultMaterial"
    },
    {
      "mesh": 2,
      "name": "defaultMaterial"
    },
    {
      "children": [
        8
      ],
      "name": "g"
    },
    {
      "mesh": 3,
      "name": "defaultMaterial"
    }
  ],
  "samplers": [
    {
      "magFilter": 9729,
      "minFilter": 9987,
      "wrapS": 10497,
      "wrapT": 10497
    }
  ],
  "scene": 0,
  "scenes": [
    {
      "name": "Sketchfab_Scene",
      "nodes": [
        0
      ]
    }
  ],
  "textures": [
    {
      "sampler": 0,
      "source": 0
    },
    {
      "sampler": 0,
      "source": 1
    },
    {
      "sampler": 0,
      "source": 2
    },
    {
      "sampler": 0,
      "source": 3
    },
    {
      "sampler": 0,
      "source": 4
    },
    {
      "sampler": 0,
      "source": 5
    },
    {
      "sampler": 0,
      "source": 6
    }
  ]
}
